<?xml version="1.0" encoding="UTF-8" standalone="no"?>
<svg
   width="1024"
   height="1024"
   viewBox="0 0 50 50"
   version="1.1"
   id="svg6"
   xmlns="http://www.w3.org/2000/svg"
   xmlns:svg="http://www.w3.org/2000/svg">
  <defs
     id="defs10" />
  <circle
     cx="25"
     cy="25"
     r="25"
     style="fill:black"
     id="circle2" />
  <path
     d="m 24.995,12.990301 c -3.26,0 -3.67,0.015 -4.95,0.07 -1.275,0.06 -2.15,0.265 -2.91,0.56 a 5.88,5.88 0 0 0 -2.125,1.385 5.88,5.88 0 0 0 -1.385,2.125 c -0.3,0.76 -0.5,1.635 -0.56,2.91 -0.055,1.28 -0.07,1.69 -0.07,4.95 0,3.25 0.015,3.665 0.07,4.94 0.06,1.28 0.265,2.15 0.56,2.915 a 5.88,5.88 0 0 0 1.385,2.125 5.88,5.88 0 0 0 2.125,1.385 c 0.76,0.295 1.635,0.5 2.91,0.555 1.28,0.06 1.69,0.07 4.95,0.07 3.25,0 3.665,-0.01 4.94,-0.07 1.28,-0.06 2.15,-0.26 2.915,-0.555 a 5.88,5.88 0 0 0 2.125,-1.385 5.88,5.88 0 0 0 1.385,-2.125 c 0.295,-0.765 0.5,-1.635 0.555,-2.915 0.06,-1.275 0.07,-1.685 0.07,-4.945 0,-3.255 -0.01,-3.665 -0.07,-4.945 -0.06,-1.275 -0.26,-2.15 -0.555,-2.91 a 5.88,5.88 0 0 0 -1.385,-2.125 5.88,5.88 0 0 0 -2.125,-1.385 c -0.765,-0.3 -1.635,-0.5 -2.915,-0.56 a 85.1,85.1 0 0 0 -4.94,-0.07 z m 0,2.16 c 3.2,0 3.58,0.015 4.845,0.07 1.17,0.055 1.8,0.25 2.225,0.415 0.56,0.215 0.96,0.475 1.38,0.9 a 3.715,3.715 0 0 1 0.9,1.375 c 0.16,0.425 0.36,1.06 0.41,2.23 0.06,1.265 0.07,1.645 0.07,4.85 0,3.2 -0.01,3.58 -0.07,4.845 -0.05,1.17 -0.25,1.8 -0.41,2.225 a 3.715,3.715 0 0 1 -0.9,1.38 3.715,3.715 0 0 1 -1.38,0.9 c -0.42,0.16 -1.055,0.36 -2.225,0.41 -1.265,0.06 -1.65,0.07 -4.85,0.07 -3.2,0 -3.58,-0.01 -4.85,-0.07 -1.165,-0.05 -1.8,-0.25 -2.225,-0.41 a 3.715,3.715 0 0 1 -1.38,-0.9 3.715,3.715 0 0 1 -0.9,-1.38 c -0.16,-0.42 -0.355,-1.055 -0.41,-2.225 a 83.25,83.25 0 0 1 -0.07,-4.85 c 0,-3.2 0.015,-3.58 0.07,-4.85 0.055,-1.165 0.25,-1.8 0.415,-2.225 a 3.715,3.715 0 0 1 0.9,-1.38 3.715,3.715 0 0 1 1.375,-0.9 c 0.425,-0.16 1.06,-0.355 2.23,-0.41 1.265,-0.055 1.645,-0.07 4.85,-0.07 z m 0,3.675 a 6.16,6.16 0 1 0 0,12.32 6.16,6.16 0 0 0 0,-12.32 z m 0,10.165 a 4,4 0 1 1 0,-8 4,4 0 0 1 0,8 z m 7.84,-10.4 a 1.44,1.44 0 1 0 -2.88,0 1.44,1.44 0 0 0 2.88,0 z"
     id="path4"
     style="stroke-width:0.5;stroke:none;stroke-opacity:1;fill:#ffffff;fill-opacity:1" />
</svg>
