<?xml version="1.0" encoding="UTF-8" standalone="no"?>
<svg
   enable-background="new 0 0 974.7 179.7"
   version="1.1"
   viewBox="0 0 9073.5709 4182.1091"
   xml:space="preserve"
   width="1024"
   height="1024"
   id="svg211"
   xmlns="http://www.w3.org/2000/svg"
   xmlns:svg="http://www.w3.org/2000/svg"
   xmlns:rdf="http://www.w3.org/1999/02/22-rdf-syntax-ns#"
   xmlns:cc="http://creativecommons.org/ns#"
   xmlns:dc="http://purl.org/dc/elements/1.1/"><defs
   id="defs215" />
								<title
   id="title203">NVIDIA'dan Yapay Zeka Bilgi İşlemi Liderliği</title>
								
								
								<circle
   style="fill:#000000;stroke-width:206.217"
   id="path297"
   cx="4536.7856"
   cy="2091.0544"
   r="4536.7856" /><path
   fill="#ffffff"
   d="M 3732.7072,1247.4194 V 870.40125 c 37.2364,-2.32727 74.4727,-4.65454 111.7091,-4.65454 1033.3091,-32.58182 1710.5454,889.01809 1710.5454,889.01809 0,0 -730.7636,1014.6909 -1515.0545,1014.6909 -104.7273,0 -207.1273,-16.2908 -304.8727,-48.8727 V 1575.5648 c 402.6182,48.8728 484.0727,225.7455 723.7819,628.3637 l 537.5999,-451.491 c 0,0 -393.3091,-514.3271 -1054.2545,-514.3271 -69.8182,-2.3273 -139.6363,2.3272 -209.4546,9.309 m 0,-1247.41812237 V 563.20127 l 111.7091,-6.98183 c 1435.9273,-48.87272 2373.8182,1177.59996 2373.8182,1177.59996 0,0 -1075.2001,1307.9272 -2194.6181,1307.9272 -97.7455,0 -193.1637,-9.309 -288.5819,-25.6 v 349.091 c 79.1273,9.309 160.5818,16.2909 239.7091,16.2909 1042.6181,0 1796.6545,-532.9455 2527.4182,-1161.3091 121.0181,97.7454 616.7272,332.8 719.1272,435.2 -693.5272,581.8182 -2310.9818,1049.5999 -3227.9272,1049.5999 -88.4363,0 -172.2182,-4.6545 -256,-13.9635 v 491.0544 h 3961.018 V 0.00127763 Z m 0,2720.58172237 v 297.8909 C 2769.2164,2846.2557 2501.58,1843.2012 2501.58,1843.2012 c 0,0 463.1273,-512 1231.1272,-595.7818 v 325.8182 h -2.3273 c -402.6181,-48.8728 -719.1272,328.1455 -719.1272,328.1455 0,0 179.2,635.3453 721.4545,819.1999 M 2022.1618,1801.3103 c 0,0 570.1819,-842.47268 1712.8727,-930.90905 V 563.20127 C 2468.9982,665.60126 1375.1801,1736.1467 1375.1801,1736.1467 c 0,0 619.0545,1791.9999 2357.5271,1954.9091 V 3365.2376 C 2457.3618,3206.983 2022.1618,1801.3103 2022.1618,1801.3103 Z"
   id="path209"
   style="stroke-width:23.2727" />
							<metadata
   id="metadata217"><rdf:RDF><cc:Work
       rdf:about=""><dc:title>NVIDIA'dan Yapay Zeka Bilgi İşlemi Liderliği</dc:title></cc:Work></rdf:RDF></metadata></svg>
