<?xml version="1.0" encoding="UTF-8" standalone="no"?>
<!-- Created with Inkscape (http://www.inkscape.org/) -->

<svg
   width="512"
   height="512"
   viewBox="0 0 135.46666 135.46666"
   version="1.1"
   id="svg5"
   xmlns="http://www.w3.org/2000/svg"
   xmlns:svg="http://www.w3.org/2000/svg">
  <defs
     id="defs2" />
  <g
     id="layer1">
    <circle
       cx="67.73333"
       cy="67.73333"
       r="67.73333"
       style="fill:#000000;stroke:none;stroke-width:0.132292"
       id="circle2" />
    <g
       id="g837"
       transform="matrix(0.92944793,0,0,0.92944792,-327.71402,-158.23664)">
      <path
         id="path6"
         style="fill:#ffffff;stroke:none;stroke-width:0.132292"
         d="m 425.20923,205.39204 c -2.50606,0.01 -22.69138,0.81184 -27.07251,23.96701 v 16.82094 c 0,0 0.19162,1.80248 5.34438,5.45703 5.15276,3.65787 18.48787,13.95341 21.98367,13.95341 3.4925,0 16.83086,-10.29554 21.98031,-13.95341 5.15277,-3.65455 5.34774,-5.45703 5.34774,-5.45703 v -16.82094 c -4.6732,-24.69885 -27.32805,-23.96468 -27.32805,-23.96468 0,0 -0.0885,-0.003 -0.25554,-0.002 z m 0.25554,11.5316 c 0,0 12.36266,0.17198 15.5112,12.43541 v 9.17102 h -31.0224 v -9.17102 c 3.14524,-12.26343 15.5112,-12.43541 15.5112,-12.43541 z" />
      <path
         d="m 425.46643,269.37725 c 0,0 -3.51235,-0.33734 -6.26071,-2.21258 -2.74505,-1.87523 -21.06744,-14.7406 -21.06744,-14.7406 v 25.46615 c 0,0 0.15544,2.96333 3.47265,2.96333 h 47.70768 c 3.32052,0 3.47266,-2.96002 3.47266,-2.96002 v -25.46615 c 0,0 -18.31909,12.86537 -21.06745,14.73729 -2.74505,1.87524 -6.25739,2.21589 -6.25739,2.21589 z"
         id="path8"
         style="fill:#ffffff;stroke:none;stroke-width:0.132292" />
    </g>
  </g>
</svg>
