<?xml version="1.0" encoding="UTF-8" standalone="no"?>
<svg
   viewBox="0 0 1024 1024"
   version="1.1"
   xmlns="http://www.w3.org/2000/svg">
  <circle
     style="fill:#000000;stroke:none;stroke-width:0;stroke-dasharray:none"
     cx="512"
     cy="512"
     r="512" />
  <path
     d="m 671.59521,787.1519 h 6.36 v 1.26 h -2.46 v 7.53 h -1.41 v -7.53 h -2.49 z"
     style="fill:#ffffff;stroke-width:3" />
  <path
     d="m 680.38521,787.1519 h 2.46 l 1.95,6.9 1.92,-6.9 h 2.46 v 8.79 h -1.47 v -7.23 0 l -2.07,6.87 h -1.47 l -2.07,-6.87 h -0.39 v 7.23 h -1.41 z"
     id="path8"
     style="fill:#ffffff;stroke-width:3" />
  <path
     d="m 539.59521,379.8719 c -1.71,12.99 -8.64,40.41 -5.25,57 4.38,21.36 20.76,20.22 26.82,9.69 a 37.95,37.95 0 0 0 2.58,-26.46 76.17,76.17 0 0 0 -24.15,-40.23 z m 14.61,61.05 c -2.04,4.59 -8.19,4.59 -10.44,-5.61 -1.98,-9 0.87,-26.43 1.77,-34.08 a 65.58,65.58 0 0 1 9,21 31.71,31.71 0 0 1 -0.33,18.69 z"
     style="fill:#ffffff;stroke-width:3" />
  <path
     d="m 534.28521,480.7919 a 37.92,37.92 0 0 0 -24.21,10.98 76.47,76.47 0 0 0 -22.77,40.92 c 12,-5.01 39.33,-12.75 51.99,-24 16.41,-14.43 7.11,-27.9 -5.01,-27.9 z m -1.02,20.67 c -6.78,6.21 -23.34,12.45 -30.42,15.51 a 66,66 0 0 1 13.68,-18.27 31.83,31.83 0 0 1 16.38,-9 c 4.98,-0.72 8.04,4.59 0.36,11.64 z"
     style="fill:#ffffff;stroke-width:3" />
  <path
     d="m 804.70521,231.0719 a 9.51,9.51 0 0 0 -3,-3 9.48,9.48 0 0 0 -16.08,-8.61 l -5.22,5.4 -9.93,3.93 a 17.55,17.55 0 0 0 -10.23,-0.36 7.26,7.26 0 0 1 -4.23,0 24.48,24.48 0 0 0 -13.86,0.87 22.65,22.65 0 0 0 -8.73,1.56 21.48,21.48 0 0 0 -10.11,8.25 l -0.9,1.14 c -13.65,3.48 -19.56,11.04 -22.14,16.86 a 27.45,27.45 0 0 0 -1.74,5.52 47.37,47.37 0 0 0 -8.01,-4.83 c -15.84,-7.26 -36.24,-4.23 -50.76,7.5 -15.48,12.51 -21.63,31.8 -16.92,52.89 a 91.02,91.02 0 0 0 10.47,25.83 c 10.74,18.63 27,35.82 42.75,52.44 13.86,14.67 27,28.53 34.47,41.52 0.48,0.81 0.93,1.62 1.32,2.4 9.75,18.51 7.95,32.13 -5.34,40.47 a 34.02,34.02 0 0 1 -14.04,4.89 c 4.71,-13.71 6.75,-33 -3.57,-50.82 a 58.2,58.2 0 0 0 -7.2,-9.9 c -19.44,-21.3 -40.08,-16.56 -48.27,-11.07 a 9.45,9.45 0 0 0 -3.6,11.16 10.53,10.53 0 0 0 0.66,1.44 9.51,9.51 0 0 0 9.21,4.68 c 8.64,-1.05 18.18,4.68 23.7,14.28 a 29.73,29.73 0 0 1 -0.24,30.63 120.87,120.87 0 0 1 -13.2,-12.66 l -1.65,-1.77 -0.99,-1.05 c -16.11,-17.7 -31.92,-27.69 -47.13,-29.76 a 75.81,75.81 0 0 0 -9.99,-35.7 107.1,107.1 0 0 0 -33.36,-36.39 60.6,60.6 0 0 0 -6.51,-4.02 c -5.28,-39.9 -31.65,-60.6 -55.32,-66.69 a 66.39,66.39 0 0 0 -72.9,28.02 c -1.38,2.07 -2.73,4.26 -4.02,6.51 -12,20.76 -18.87,45 -25.53,68.31 -5.67,19.89 -10.86,38.67 -18.99,53.85 l -1.44,2.58 c -5.31,9.18 -9.99,14.25 -15,15.87 a 10.05,10.05 0 0 1 -9.21,-1.56 c -5.01,-3.42 -3.81,-10.41 0.63,-23.85 a 86.13,86.13 0 0 0 3.15,-11.04 29.43,29.43 0 0 0 -4.98,-23.28 27,27 0 0 0 -19.38,-10.11 c -7.62,-0.66 -18.63,1.89 -27.78,17.73 -0.78,1.38 -1.44,2.61 -1.95,3.63 a 23.04,23.04 0 0 0 -15.75,-15.27 25.26,25.26 0 0 0 -13.02,-4.86 8.52,8.52 0 0 1 -4.14,-1.35 17.34,17.34 0 0 0 -10.68,-2.49 l -7.98,-6.3 -3.54,-6.66 a 9.48,9.48 0 0 0 -16.62,-0.39 9.96,9.96 0 0 0 -1.26,4.14 9.54,9.54 0 0 0 -5.37,4.29 10.26,10.26 0 0 0 -1.2,3.57 9.48,9.48 0 0 0 7.17,10.35 l 7.44,1.83 8.4,6.6 a 18,18 0 0 0 4.8,9 7.32,7.32 0 0 1 2.16,3.57 24.87,24.87 0 0 0 7.68,11.73 22.98,22.98 0 0 0 5.7,6.75 21.51,21.51 0 0 0 12.3,4.65 l 1.44,0.21 c 9.84,10.05 19.32,11.4 25.65,10.71 a 26.01,26.01 0 0 0 5.64,-1.26 49.29,49.29 0 0 0 -0.15,9.36 c 1.62,17.34 14.43,33.51 31.89,40.23 18.54,7.14 38.34,3 54.24,-11.79 a 90.78,90.78 0 0 0 17.13,-21.99 c 10.74,-18.6 17.52,-41.31 24,-63.24 5.76,-19.35 11.16,-37.65 18.69,-50.61 l 1.41,-2.34 c 11.19,-17.7 24,-22.95 37.74,-15.6 a 33,33 0 0 1 11.25,9.69 c -14.22,2.79 -31.89,10.5 -42.21,28.5 a 57.3,57.3 0 0 0 -4.98,11.34 c -8.73,27.51 5.7,43.02 14.55,47.37 a 9.48,9.48 0 0 0 11.76,-14.22 c -5.25,-6.93 -5.04,-18 0.51,-27.66 a 29.76,29.76 0 0 1 26.64,-15 122.22,122.22 0 0 1 -4.2,17.67 c -0.27,0.81 -0.51,1.59 -0.72,2.31 -0.21,0.72 -0.24,0.81 -0.42,1.38 -7.26,22.83 -8.01,41.49 -2.22,55.71 a 76.23,76.23 0 0 0 -25.92,26.49 107.55,107.55 0 0 0 -14.82,47.1 66.39,66.39 0 0 0 0,7.59 c -31.98,24.57 -36.75,57.75 -30,81.3 a 66.36,66.36 0 0 0 60.69,49.14 c 2.49,0 5.07,0.21 7.65,0.21 24,0 48.33,-6 72,-12 20.07,-5.04 39,-9.78 56.07,-10.41 h 3 c 10.62,0 17.37,1.53 21.24,5.01 a 10.08,10.08 0 0 1 3.27,8.76 c -0.48,6 -7.14,8.49 -21,11.37 a 80.61,80.61 0 0 0 -11.1,2.85 29.34,29.34 0 0 0 -17.67,15.93 26.79,26.79 0 0 0 0.93,21.84 c 3.24,6.93 10.95,15.18 29.25,15.18 1.59,0 3,0 4.11,0 a 23.73,23.73 0 0 0 -6,12.39 22.92,22.92 0 0 0 0.51,9 24.99,24.99 0 0 0 2.28,13.71 8.04,8.04 0 0 1 0.99,4.29 17.49,17.49 0 0 0 3.27,10.35 l -1.47,10.08 -4.11,6.45 a 9.48,9.48 0 0 0 7.98,14.58 9.39,9.39 0 0 0 4.2,-0.99 9.45,9.45 0 0 0 6.42,2.52 9.3,9.3 0 0 0 3.66,-0.75 9.48,9.48 0 0 0 5.43,-11.4 l -2.16,-7.35 1.53,-10.59 a 17.64,17.64 0 0 0 5.43,-8.67 7.44,7.44 0 0 1 2.07,-3.69 24.69,24.69 0 0 0 6.18,-12.45 23.04,23.04 0 0 0 3,-8.34 21.6,21.6 0 0 0 -2.1,-12.87 c -0.18,-0.42 -0.39,-0.93 -0.54,-1.38 3.78,-13.53 0.21,-22.44 -3.54,-27.57 a 25.2,25.2 0 0 0 -3.93,-4.26 48,48 0 0 0 8.19,-4.53 c 14.22,-10.08 21.81,-29.28 18.9,-47.73 -3,-19.65 -16.71,-34.62 -37.35,-41.1 a 91.2,91.2 0 0 0 -27.6,-3.84 c -21.48,0 -44.52,5.49 -66.78,10.8 -19.65,4.68 -38.22,9 -53.19,9 h -2.73 c -21,-0.84 -31.8,-9.21 -32.37,-24.87 a 33.51,33.51 0 0 1 2.76,-14.61 c 9.54,10.92 25.14,22.32 45.78,22.32 a 57.69,57.69 0 0 0 12.33,-1.35 c 28.17,-6.21 34.38,-26.43 33.75,-36.27 a 9.48,9.48 0 0 0 -18.18,-3 c -3.42,8.01 -13.14,13.38 -24.24,13.38 a 29.82,29.82 0 0 1 -26.4,-15.51 121.41,121.41 0 0 1 17.58,-5.13 l 2.34,-0.54 1.41,-0.3 c 23.4,-5.13 39.93,-13.83 49.35,-25.95 a 75.99,75.99 0 0 0 36,9.18 107.19,107.19 0 0 0 48.21,-10.68 69,69 0 0 0 6.66,-3.69 c 37.26,15.45 68.37,3 85.47,-14.52 a 66.33,66.33 0 0 0 11.67,-77.49 c -1.11,-2.22 -2.34,-4.5 -3.63,-6.72 -12,-20.76 -29.46,-38.82 -46.38,-56.28 -14.4,-15 -27.99,-28.86 -37.05,-43.32 -0.54,-0.84 -1.05,-1.71 -1.53,-2.52 -5.31,-9.21 -7.35,-15.81 -6.27,-21 a 10.08,10.08 0 0 1 6,-7.2 c 5.46,-2.64 10.92,1.92 20.34,12.48 a 86.49,86.49 0 0 0 7.98,8.16 29.4,29.4 0 0 0 22.68,7.35 27,27 0 0 0 18.45,-11.73 c 4.35,-6.27 7.65,-17.07 -1.5,-33 -0.78,-1.38 -1.53,-2.55 -2.13,-3.51 a 23.58,23.58 0 0 0 13.62,-1.14 22.86,22.86 0 0 0 7.47,-4.89 24.9,24.9 0 0 0 10.71,-8.82 8.37,8.37 0 0 1 3.24,-3 17.52,17.52 0 0 0 7.35,-7.98 l 9.42,-3.78 7.65,0.36 a 9.48,9.48 0 0 0 9.81,-8.1 9.33,9.33 0 0 0 -1.23,-5.97 z m -18,4.32 -16.11,6.45 a 6.48,6.48 0 0 1 -3.81,6.66 c -7.74,4.53 -4.86,7.95 -14.34,12 -1.95,0.81 -0.3,1.62 -6.27,4.38 -4.17,1.92 -10.41,-0.6 -13.59,0 -3.18,0.6 -10.56,4.56 -5.01,13.29 2.49,3.93 12,17.04 4.77,27.39 -6.27,9 -17.22,10.89 -27.24,2.52 -9,-7.56 -21.72,-30 -38.52,-21.93 -17.43,8.4 -12.33,27.84 -2.07,44.22 21.69,34.56 66.51,65.49 86.64,105.54 24.69,49.11 -27.21,106.56 -90.21,76.59 a 56.7,56.7 0 0 1 -9.78,6 c -27,13.08 -62.13,14.04 -82.95,-3.48 -9.72,23.13 -44.07,29.13 -49.98,30.54 a 108,108 0 0 0 -30,10.2 c 12,39.66 60.72,35.79 71.46,10.5 0,0 1.35,20.34 -26.31,26.4 -28.92,6.42 -49.68,-15.87 -55.95,-28.47 a 43.95,43.95 0 0 0 -12,31.71 c 0.63,16.98 11.28,32.82 41.46,34.02 40.92,1.59 104.52,-30 147.87,-16.47 39,12.24 38.31,56.1 15.78,72 -7.44,5.28 -21.21,9 -30.18,9.48 -4.53,0.24 -4.8,2.34 -4.41,3.54 0.39,1.2 3,1.68 6.87,1.29 14.37,-1.38 29.79,6.99 22.95,28.62 -1.08,3.39 3.84,9 3,13.5 -1.32,6.45 -2.46,5.04 -2.79,7.11 -1.74,10.17 -6,8.07 -8.34,16.71 a 6.36,6.36 0 0 1 -5.01,5.19 l -2.49,17.34 2.73,9.33 -4.65,-7.77 -6.15,6.36 5.22,-8.19 2.49,-17.19 a 6.45,6.45 0 0 1 -3.9,-6.63 c 0,-9 -4.44,-8.19 -3.18,-18.42 0.27,-2.07 -1.23,-1.05 -0.63,-7.59 0.39,-4.56 5.7,-8.7 6.72,-11.82 1.02,-3.12 1.32,-11.4 -9,-10.98 -4.65,0.18 -20.76,1.86 -26.1,-9.54 -4.68,-9.96 -0.81,-20.37 11.43,-24.87 11.04,-4.05 36.84,-3.78 38.25,-22.38 1.44,-19.32 -18,-24.6 -37.26,-24 -40.77,1.5 -90,24.87 -134.73,22.26 -54.84,-3.18 -78.69,-76.83 -21.21,-116.43 a 55.62,55.62 0 0 1 -0.27,-11.43 c 2.19,-30 18.9,-60.84 44.49,-70.11 -15.18,-19.98 -3.21,-52.74 -1.47,-58.53 a 108.96,108.96 0 0 0 6,-30.99 c -40.35,-9.45 -61.35,34.71 -45,56.64 0,0 -18.27,-9 -9.69,-36 9,-28.5 38.61,-35.28 52.77,-34.44 a 43.89,43.89 0 0 0 -21.3,-26.28 c -15,-7.95 -34.05,-6.63 -50.19,18.9 -21.81,34.62 -26.1,105.66 -59.55,136.26 -30,27.66 -67.74,5.16 -70.32,-22.35 -0.84,-9 3,-22.86 6.9,-30.84 2.07,-4.08 0.39,-5.34 -0.84,-5.61 -1.68,-0.39 -3,1.71 -4.56,5.31 -6,13.14 -21,22.32 -36.27,5.55 -2.4,-2.61 -9.72,-1.2 -13.14,-4.23 -4.95,-4.38 -3.15,-4.65 -4.77,-6 -7.92,-6.6 -4.05,-9 -10.29,-15.57 a 6.33,6.33 0 0 1 -1.98,-6.93 l -13.8,-10.83 -9.42,-2.31 h 9 l -2.37,-8.4 4.47,8.61 13.65,10.74 a 6.51,6.51 0 0 1 7.68,0 c 7.77,4.47 9.3,0.24 17.55,6.45 1.65,1.26 1.53,-0.57 6.9,3.24 3.75,2.64 4.68,9.3 6.84,11.73 2.16,2.43 9.24,6.87 14.04,-2.31 2.16,-4.11 8.76,-18.9 21.3,-17.82 10.98,0.93 18,9.48 15.81,22.32 -2.01,11.61 -15,33.81 0.3,44.31 15.96,10.92 30.24,-3.21 39.3,-20.31 19.08,-36 23.46,-90.33 48,-127.8 30.18,-45.9 105.9,-29.7 111.42,39.84 a 57,57 0 0 1 10.17,5.61 c 24.87,16.89 43.2,46.77 38.43,73.56 24.93,-3 47.31,23.61 51.45,28.02 a 108,108 0 0 0 23.76,20.76 c 28.38,-30.21 0.63,-70.5 -26.61,-67.17 0,0 16.92,-11.31 36,9.6 20.16,22.11 11.25,51 3.45,63 a 43.86,43.86 0 0 0 33.69,-5.61 c 14.37,-9 22.77,-26.16 8.7,-52.89 -19.23,-36.27 -78.42,-75.51 -88.32,-119.85 -9,-39.87 29.4,-61.23 54.51,-49.68 8.28,3.78 18.36,13.86 23.28,21.39 2.49,3.81 4.41,3 5.28,2.07 0.87,-0.93 0,-3.39 -2.34,-6.63 -8.37,-11.73 -8.82,-29.28 13.35,-34.17 3.45,-0.75 6,-7.83 10.23,-9.24 6.24,-2.13 5.58,-0.42 7.56,-1.17 9.75,-3.57 9.93,1.08 18.75,-0.99 a 6.36,6.36 0 0 1 6.99,1.77 l 16.26,-6.54 6.75,-7.23 -4.62,7.8 8.61,2.16 z"
     style="fill:#ffffff;stroke-width:3" />
  <path
     d="m 577.27521,486.7919 a 37.86,37.86 0 0 0 21.63,15.48 76.29,76.29 0 0 0 46.8,-0.72 c -10.38,-7.98 -30.69,-27.69 -46.71,-33 -20.61,-6.93 -27.81,7.83 -21.72,18.24 z m 24.39,6.42 a 31.77,31.77 0 0 1 -15.96,-9.42 c -3,-4.05 0,-9.39 10.08,-6.24 8.73,2.76 22.44,13.98 28.62,18.57 a 65.25,65.25 0 0 1 -22.74,-2.82 z"
     style="fill:#ffffff;stroke-width:3" />
</svg>
