<?xml version="1.0" encoding="UTF-8" standalone="no"?>
<svg
   viewBox="0 0 216 216"
   version="1.1"
   id="svg16"
   width="216"
   height="216"
   xmlns="http://www.w3.org/2000/svg"
   xmlns:svg="http://www.w3.org/2000/svg">
  <defs
     id="defs20" />
  <g
     data-name="Layer 2"
     id="g14">
    <g
       data-name="Layer 1"
       id="g12">
      <circle
         style="fill:#000000"
         id="path330"
         cx="108"
         cy="108"
         r="108" />
      <path
         d="m 170.705,126.92 h -27.06 l -4.29,-27 -15.86,26.8 h -3 a 23.14,23.14 0 0 1 -2.52,-10.42 c 0,-4.6 0.34,-9.1 0.34,-15 0,-7.76 -2.28,-11.92 -8.37,-13.38 v -0.2 c 12.94,-1.8 18.81,-10.36 18.81,-22.42 0,-17.12 -11.39,-20.84 -26.32,-20.84 h -40.14 l -17,80.4 h 21.37 l 6.18,-29.25 h 14.19 c 7.57,0 10.67,3.7 10.67,10.79 0,5.39 -0.56,9.66 -0.56,13.81 0,1.54 0.35,5.11 1.38,6.49 l 15.43,16.29 -13.27,28.55 28.39,-16.82 21.14,16.23 -4,-26.93 z M 93.415,80.58 h -17 l 4.1,-19.38 h 15.79 c 5.62,0 11.46,1.46 11.46,8.34 0,8.67 -6.65,11.04 -14.35,11.04 z"
         id="path8"
         style="fill:#ffffff" />
    </g>
  </g>
</svg>
