<?xml version="1.0" encoding="UTF-8" standalone="no"?>
<svg
   role="img"
   viewBox="0 0 24 24"
   version="1.1"
   id="svg6"
   xmlns="http://www.w3.org/2000/svg"
   xmlns:svg="http://www.w3.org/2000/svg"
   xmlns:rdf="http://www.w3.org/1999/02/22-rdf-syntax-ns#"
   xmlns:cc="http://creativecommons.org/ns#"
   xmlns:dc="http://purl.org/dc/elements/1.1/">
  <defs
     id="defs10" />
  <title
     id="title2">Twitter</title>
  <circle
     style="fill:#000000"
     id="path276"
     cx="12"
     cy="12"
     r="12" />
  <path
     d="m 19.64992,7.2447111 a 6.4,6.4 0 0 1 -1.808,0.496 3.17312,3.17312 0 0 0 1.38432,-1.74272 c -0.60864,0.3552 -1.2832,0.61376 -2.00128,0.75776 a 3.1488,3.1488 0 0 0 -5.36576,2.86848 c -2.6176,-0.12352 -4.93632,-1.38112 -6.4896,-3.28064 a 3.08608,3.08608 0 0 0 -0.42624,1.584 c 0,1.0944 0.5568,2.05632 1.40032,2.6214399 a 3.13856,3.13856 0 0 1 -1.42592,-0.39424 v 0.0384 a 3.15072,3.15072 0 0 0 2.52544,3.08928 3.19744,3.19744 0 0 1 -1.41568,0.0544 3.15904,3.15904 0 0 0 2.94656,2.18688 6.31488,6.31488 0 0 1 -3.90528,1.3472 c -0.2496,0 -0.49856,-0.01472 -0.7488,-0.04288 a 8.9568,8.9568 0 0 0 4.83648,1.41376 c 5.79392,0 8.95872,-4.79744 8.95872,-8.9503999 0,-0.1344 0,-0.2688 -0.0096,-0.4032 a 6.3584,6.3584 0 0 0 1.5744,-1.63072 z"
     id="path4"
     style="fill:#ffffff;stroke-width:0.64" />
  <metadata
     id="metadata170">
    <rdf:RDF>
      <cc:Work
         rdf:about="">
        <dc:title>Twitter</dc:title>
      </cc:Work>
    </rdf:RDF>
  </metadata>
</svg>
